<svg width="172" height="25" viewBox="0 0 172 25" fill="none" xmlns="http://www.w3.org/2000/svg">
<path d="M164.543 20.0544H165.876V5.40698H164.543V20.0544Z" fill="white"/>
<path d="M96.8654 5.76297V7.03444C94.8914 6.88186 93.943 7.67017 93.9686 9.60281V10.0097H96.891V11.2811H93.9686V20.0544H92.6356V11.3066H90.918V10.0351H92.6356V9.62824C92.6099 7.00901 94.1224 5.55953 96.8654 5.76297Z" fill="white"/>
<path fill-rule="evenodd" clip-rule="evenodd" d="M34.2905 11.2049C35.034 10.2894 36.085 9.75539 37.5719 9.75539C40.2892 9.75539 42.5196 12.0695 42.5196 15.0447C42.5196 18.0199 40.2892 20.334 37.5719 20.334C36.1107 20.334 35.034 19.8 34.2905 18.8845V20.0544H31.6758V6.01727H34.2905V11.2049ZM34.2905 15.0447C34.2905 16.723 35.4955 17.8674 37.0848 17.8674C38.6999 17.8674 39.9047 16.723 39.9047 15.0447C39.9047 13.3664 38.6999 12.222 37.0848 12.222C35.4955 12.222 34.2905 13.3664 34.2905 15.0447Z" fill="white"/>
<path d="M46.6986 10.0097V11.7389C47.2114 10.3657 48.4931 9.80624 49.7749 9.80624V12.7052C48.4162 12.5272 46.6986 13.1375 46.6986 15.2481V20.0544H44.1094V10.0097H46.6986Z" fill="white"/>
<path fill-rule="evenodd" clip-rule="evenodd" d="M53.4656 16.0873H61.0793C61.1306 15.7313 61.182 15.4007 61.182 15.0193C61.182 12.0695 59.0542 9.72995 56.0549 9.72995C52.8761 9.72995 50.7227 12.044 50.7227 15.0193C50.7227 18.0199 52.8761 20.3085 56.2599 20.3085C58.2082 20.3085 59.7208 19.5202 60.6692 18.1724L58.5671 16.9773C58.1056 17.5621 57.311 17.969 56.3112 17.969C54.9525 17.9944 53.8501 17.4096 53.4656 16.0873ZM53.44 14.0784C53.7475 12.8069 54.6961 12.044 56.0805 12.044C57.1827 12.044 58.2594 12.6289 58.5927 14.0784H53.44Z" fill="white"/>
<path fill-rule="evenodd" clip-rule="evenodd" d="M70.6158 11.2048V10.035H73.2307V20.0543H70.6158V18.8844C69.8723 19.8 68.7956 20.3339 67.3088 20.3339C64.6171 20.3339 62.3867 18.0453 62.3867 15.0446C62.3867 12.0694 64.6171 9.75532 67.3088 9.75532C68.7956 9.72989 69.8723 10.2893 70.6158 11.2048ZM65.0272 15.0446C65.0272 16.723 66.2064 17.8673 67.8215 17.8673C69.4365 17.8673 70.6415 16.723 70.6415 15.0446C70.6415 13.3663 69.4622 12.222 67.8215 12.222C66.2064 12.222 65.0272 13.3663 65.0272 15.0446Z" fill="white"/>
<path fill-rule="evenodd" clip-rule="evenodd" d="M82.8697 6.01727V11.2049C82.1262 10.2894 81.0752 9.75539 79.5883 9.75539C76.8708 9.75539 74.6406 12.0695 74.6406 15.0447C74.6406 18.0454 76.8708 20.334 79.5883 20.334C81.0495 20.334 82.1262 19.8 82.8697 18.8845V20.0544H85.4844V6.01727H82.8697ZM80.0754 17.8674C78.4603 17.8674 77.2555 16.723 77.2555 15.0447C77.2555 13.3664 78.4346 12.222 80.0754 12.222C81.6647 12.222 82.8697 13.3664 82.8697 15.0447C82.8697 16.723 81.6647 17.8674 80.0754 17.8674Z" fill="white"/>
<path d="M99.1967 7.89907C99.7352 7.89907 100.171 7.44134 100.171 6.93276C100.171 6.39874 99.7352 5.96643 99.1967 5.96643C98.6585 5.96643 98.2227 6.42417 98.2227 6.93276C98.2227 7.44134 98.6328 7.89907 99.1967 7.89907Z" fill="white"/>
<path d="M98.5312 20.0543H99.8643V10.0096H98.5312V20.0543Z" fill="white"/>
<path d="M103.862 11.5863C104.657 10.3148 105.811 9.78079 107.247 9.78079C109.707 9.78079 111.194 11.3828 111.194 13.9004V20.0543H109.861V13.9004C109.861 12.1203 108.861 11.0777 107.118 11.0777C105.349 11.0777 103.837 12.1203 103.837 14.8158V20.0543H102.504V10.0097H103.837V11.5863H103.862Z" fill="white"/>
<path fill-rule="evenodd" clip-rule="evenodd" d="M122.142 10.0097V11.9678C121.296 10.62 119.86 9.7554 118.066 9.7554C115.22 9.7554 112.836 12.044 112.836 15.0193C112.836 17.9945 115.194 20.2832 118.066 20.2832C119.86 20.2832 121.296 19.4186 122.142 18.0708V20.0289H123.475V10.0097H122.142ZM118.168 18.9863C115.938 18.9863 114.195 17.2571 114.195 15.0193C114.195 12.7815 115.938 11.0523 118.168 11.0523C120.424 11.0523 122.142 12.7815 122.142 15.0193C122.142 17.2571 120.398 18.9863 118.168 18.9863Z" fill="white"/>
<path d="M127.245 11.5863C128.04 10.3148 129.194 9.78079 130.629 9.78079C133.09 9.78079 134.603 11.3828 134.577 13.9004V20.0543H133.244V13.9004C133.244 12.1203 132.244 11.0777 130.501 11.0777C128.732 11.0777 127.22 12.1203 127.22 14.8158V20.0543H125.887V10.0097H127.22V11.5863H127.245Z" fill="white"/>
<path d="M141.676 20.2832C143.65 20.2832 145.367 19.2659 146.213 17.664L145.111 17.0282C144.47 18.1979 143.239 18.9863 141.701 18.9863C139.471 18.9863 137.728 17.2571 137.728 15.0193C137.728 12.7815 139.471 11.0523 141.701 11.0523C143.214 11.0523 144.496 11.8406 145.034 13.0104L146.136 12.3746C145.393 10.798 143.701 9.7554 141.701 9.7554C138.651 9.7554 136.395 12.044 136.395 15.0193C136.369 17.9945 138.625 20.2832 141.676 20.2832Z" fill="white"/>
<path fill-rule="evenodd" clip-rule="evenodd" d="M160.493 11.9931V10.0351H161.826V20.0543H160.493V18.0962C159.647 19.4439 158.212 20.3085 156.417 20.3085C153.571 20.3085 151.188 18.0199 151.188 15.0447C151.188 12.0694 153.571 9.78079 156.417 9.78079C158.212 9.78079 159.647 10.6454 160.493 11.9931ZM152.52 15.0192C152.52 17.257 154.264 18.9863 156.494 18.9863C158.75 18.9863 160.467 17.257 160.467 15.0192C160.467 12.7814 158.724 11.0523 156.494 11.0523C154.264 11.0523 152.52 12.8069 152.52 15.0192Z" fill="white"/>
<path d="M149.804 6.93276C149.804 7.44134 149.368 7.89907 148.83 7.89907C148.291 7.89907 147.855 7.46676 147.855 6.93276C147.855 6.42417 148.291 5.96643 148.83 5.96643C149.368 5.96643 149.804 6.39874 149.804 6.93276Z" fill="white"/>
<path d="M149.445 20.0543H148.215V10.0096H149.445V20.0543Z" fill="white"/>
<path d="M169.129 18.0585H167.836V18.282H168.364V19.837H168.599V18.282H169.129V18.0585Z" fill="white"/>
<path d="M171.041 18.0585H170.772L170.203 18.9985L169.632 18.0585H169.363V19.837H169.602V18.4498L170.188 19.4152H170.219L170.805 18.4472V19.837H171.041V18.0585Z" fill="white"/>
<path d="M12.5747 0.473694C5.92051 0.473694 0.527344 5.86686 0.527344 12.5211C0.527344 19.1753 5.92051 24.5684 12.5747 24.5684C19.2289 24.5684 24.6221 19.1753 24.6221 12.5211C24.6333 5.86686 19.2402 0.473694 12.5747 0.473694ZM14.8941 21.292L14.7365 21.3821C13.6781 21.9563 12.3495 21.551 11.7753 20.4926L5.22244 8.32137C4.64822 7.263 5.05355 5.93442 6.11191 5.3602L6.26954 5.27012C7.32791 4.6959 8.6565 5.08998 9.23072 6.1596L15.7836 18.3308C16.3465 19.4004 15.9525 20.7178 14.8941 21.292ZM17.54 17.9142L12.4509 8.46774C15.063 7.06034 18.3169 8.03989 19.7243 10.652C21.1317 13.2529 20.1522 16.5068 17.54 17.9142Z" fill="#59BEC9"/>
</svg>
